<?xml version="1.0" encoding="UTF-8"?>
<svg xmlns="http://www.w3.org/2000/svg" viewBox="0 0 210 475" width="210" height="475">
  <g fill="none" stroke="rgba(255,255,255,0.9)" stroke-width="3.5" stroke-linejoin="round" stroke-linecap="round">
    <path d="M 101.6,151.8 L 89.9,154.7 L 87.4,168.2 L 89.3,177.6 L 67.8,195.6 L 62.4,203.2 L 58.9,213.5 L 62.7,236.1 L 62.0,262.3 L 58.6,280.7 L 45.6,322.1 L 44.6,353.9 L 50.1,384.5 L 59.5,411.4 L 65.2,418.7 L 76.8,423.0 L 118.6,423.6 L 135.8,421.9 L 142.5,418.7 L 147.9,412.5 L 153.7,397.8 L 163.6,359.7 L 165.4,324.9 L 160.9,315.3 L 165.1,309.8 L 165.6,283.0 L 159.9,231.2 L 147.6,200.2 L 126.5,178.2 L 128.0,157.2 L 125.0,153.6 Z"/>
    <path d="M 120.7,154.4 L 126.7,159.1 L 125.3,179.5 L 144.2,198.4 L 152.9,216.8 L 153.4,221.3 L 148.5,230.5 L 135.8,239.0 L 130.3,248.2 L 127.3,283.9 L 129.0,295.8 L 133.1,303.1 L 156.9,312.7 L 163.5,322.8 L 161.5,363.8 L 148.8,406.5 L 140.4,417.9 L 123.3,421.5 L 76.5,421.2 L 65.3,416.5 L 60.6,409.9 L 51.1,382.6 L 45.8,349.4 L 47.6,319.8 L 63.2,265.7 L 64.4,238.3 L 60.7,212.6 L 68.8,196.8 L 90.5,178.9 L 91.6,173.8 L 89.1,171.0 L 91.0,156.1 L 105.0,153.3 Z"/>
  </g>
</svg>